HIERARCHY
ROOT Hips
{
	OFFSET 0.000000 71.427986 0.000000
	CHANNELS 6 Xposition Yposition Zposition Xrotation Yrotation Zrotation
	JOINT Pelvis
	{
		OFFSET 0.000000 0.000000 0.000000
		CHANNELS 3 Xrotation Yrotation Zrotation
		JOINT LeftUpLeg
		{
			OFFSET 6.797100 -2.508499 -1.318700
			CHANNELS 3 Xrotation Yrotation Zrotation
			JOINT LeftLeg
			{
				OFFSET 0.069008 -29.241863 0.690200
				CHANNELS 3 Xrotation Yrotation Zrotation
				JOINT LeftFoot
				{
					OFFSET -0.069008 -29.568123 -0.266800
					CHANNELS 3 Xrotation Yrotation Zrotation
					JOINT LeftToeBase
					{
						OFFSET 3.145500 -8.631000 16.059900
						CHANNELS 3 Xrotation Yrotation Zrotation
						End Site
						{
							OFFSET 0.000000 18.501587 0.000000
						}
					}
				}
			}
			JOINT Left_ShortSleeve
			{
				OFFSET 0.265923 -10.480953 1.153800
				CHANNELS 3 Xrotation Yrotation Zrotation
				End Site
				{
					OFFSET 1.725763 19.823879 0.000000
				}
			}
		}
		JOINT RightUpLeg
		{
			OFFSET -6.797100 -2.508499 -1.318700
			CHANNELS 3 Xrotation Yrotation Zrotation
			JOINT RightLeg
			{
				OFFSET -0.082453 -29.241932 0.688000
				CHANNELS 3 Xrotation Yrotation Zrotation
				JOINT RightFoot
				{
					OFFSET 0.082453 -29.568058 -0.264600
					CHANNELS 3 Xrotation Yrotation Zrotation
					JOINT RightToeBase
					{
						OFFSET -3.115300 -8.682800 16.113400
						CHANNELS 3 Xrotation Yrotation Zrotation
						End Site
						{
							OFFSET 0.000000 18.567114 0.000000
						}
					}
				}
			}
			JOINT Right_ShortSleeve
			{
				OFFSET -0.265923 -10.480953 1.153800
				CHANNELS 3 Xrotation Yrotation Zrotation
				End Site
				{
					OFFSET -1.725766 19.823910 0.000000
				}
			}
		}
	}
	JOINT Spine
	{
		OFFSET 0.000000 13.368103 0.470500
		CHANNELS 3 Xrotation Yrotation Zrotation
		JOINT Spine1
		{
			OFFSET 0.147000 13.837402 0.538800
			CHANNELS 3 Xrotation Yrotation Zrotation
			JOINT Spine2
			{
				OFFSET 0.168000 16.242897 -1.435500
				CHANNELS 3 Xrotation Yrotation Zrotation
				JOINT Neck
				{
					OFFSET 0.217200 18.631500 -1.679100
					CHANNELS 3 Xrotation Yrotation Zrotation
					JOINT Head
					{
						OFFSET 0.000000 6.599396 1.385900
						CHANNELS 3 Xrotation Yrotation Zrotation
						JOINT Hat
						{
							OFFSET -0.532200 27.220596 -10.096100
							CHANNELS 3 Xrotation Yrotation Zrotation
							End Site
							{
								OFFSET 0.000000 22.029861 0.000000
							}
						}
						JOINT HairD
						{
							OFFSET -10.777400 17.437393 -1.325900
							CHANNELS 3 Xrotation Yrotation Zrotation
							JOINT HairD1
							{
								OFFSET -3.290299 -11.051193 1.062200
								CHANNELS 3 Xrotation Yrotation Zrotation
								End Site
								{
									OFFSET 0.000000 11.579437 0.000000
								}
							}
						}
						JOINT HairB
						{
							OFFSET -10.777400 17.437393 1.467900
							CHANNELS 3 Xrotation Yrotation Zrotation
							JOINT HairB1
							{
								OFFSET -1.561200 -12.956299 3.590200
								CHANNELS 3 Xrotation Yrotation Zrotation
								End Site
								{
									OFFSET 0.000000 13.534866 0.000000
								}
							}
						}
						JOINT HairA
						{
							OFFSET 9.713100 17.437393 1.467900
							CHANNELS 3 Xrotation Yrotation Zrotation
							JOINT HairA1
							{
								OFFSET 1.561200 -12.956299 3.590200
								CHANNELS 3 Xrotation Yrotation Zrotation
								End Site
								{
									OFFSET 0.000000 13.534866 0.000000
								}
							}
						}
						JOINT HairC
						{
							OFFSET 9.713100 17.437393 -1.325900
							CHANNELS 3 Xrotation Yrotation Zrotation
							JOINT HairC1
							{
								OFFSET 3.290300 -11.051193 1.062200
								CHANNELS 3 Xrotation Yrotation Zrotation
								End Site
								{
									OFFSET 0.000000 11.579437 0.000000
								}
							}
						}
					}
				}
				JOINT LeftShoulder
				{
					OFFSET 5.101800 15.108002 -2.763700
					CHANNELS 3 Xrotation Yrotation Zrotation
					JOINT LeftArm
					{
						OFFSET 9.825497 2.506317 -1.597400
						CHANNELS 3 Xrotation Yrotation Zrotation
						JOINT LeftForeArm
						{
							OFFSET 21.966244 0.000000 0.000000
							CHANNELS 3 Xrotation Yrotation Zrotation
							JOINT LeftHand
							{
								OFFSET 33.879036 0.000000 0.000000
								CHANNELS 3 Xrotation Yrotation Zrotation
								JOINT LeftHandThumb1
								{
									OFFSET 6.715286 -2.359680 3.363841
									CHANNELS 3 Xrotation Yrotation Zrotation
									JOINT LeftHandThumb2
									{
										OFFSET 2.507072 -1.447464 1.447461
										CHANNELS 3 Xrotation Yrotation Zrotation
										JOINT LeftHandThumb3
										{
											OFFSET 2.898338 -1.673355 1.673357
											CHANNELS 3 Xrotation Yrotation Zrotation
											End Site
											{
												OFFSET -0.295959 3.727692 -0.131651
											}
										}
									}
								}
								JOINT LeftHandIndex1
								{
									OFFSET 14.190811 -0.254547 3.840278
									CHANNELS 3 Xrotation Yrotation Zrotation
									JOINT LeftHandIndex2
									{
										OFFSET 3.551727 0.000000 -0.000000
										CHANNELS 3 Xrotation Yrotation Zrotation
										JOINT LeftHandIndex3
										{
											OFFSET 2.894196 0.000000 0.000000
											CHANNELS 3 Xrotation Yrotation Zrotation
											End Site
											{
												OFFSET -1.000603 2.690872 0.366626
											}
										}
									}
								}
								JOINT LeftHandMiddle1
								{
									OFFSET 13.776489 0.000000 0.000000
									CHANNELS 3 Xrotation Yrotation Zrotation
									JOINT LeftHandMiddle2
									{
										OFFSET 3.438232 0.000000 0.000000
										CHANNELS 3 Xrotation Yrotation Zrotation
										JOINT LeftHandMiddle3
										{
											OFFSET 3.691551 0.000000 0.000000
											CHANNELS 3 Xrotation Yrotation Zrotation
											End Site
											{
												OFFSET -1.082298 3.499527 0.457670
											}
										}
									}
								}
								JOINT LeftHandRing1
								{
									OFFSET 13.966164 -0.268127 -3.067488
									CHANNELS 3 Xrotation Yrotation Zrotation
									JOINT LeftHandRing2
									{
										OFFSET 3.162567 0.000000 0.000000
										CHANNELS 3 Xrotation Yrotation Zrotation
										JOINT LeftHandRing3
										{
											OFFSET 3.324348 0.000000 0.000000
											CHANNELS 3 Xrotation Yrotation Zrotation
											End Site
											{
												OFFSET -0.861900 3.184998 0.405154
											}
										}
									}
								}
								JOINT LeftHandPinky1
								{
									OFFSET 13.131393 -0.168503 -5.746925
									CHANNELS 3 Xrotation Yrotation Zrotation
									JOINT LeftHandPinky2
									{
										OFFSET 2.849182 0.000000 0.000000
										CHANNELS 3 Xrotation Yrotation Zrotation
										JOINT LeftHandPinky3
										{
											OFFSET 2.805038 0.000000 0.000000
											CHANNELS 3 Xrotation Yrotation Zrotation
											End Site
											{
												OFFSET -0.882500 2.642609 0.325652
											}
										}
									}
								}
							}
							JOINT Left_Sleeve
							{
								OFFSET 6.592125 -0.646545 0.805568
								CHANNELS 3 Xrotation Yrotation Zrotation
								End Site
								{
									OFFSET -0.000179 20.275787 -0.000000
								}
							}
						}
					}
				}
				JOINT RightShoulder
				{
					OFFSET -5.731700 15.108002 -2.763700
					CHANNELS 3 Xrotation Yrotation Zrotation
					JOINT RightArm
					{
						OFFSET -9.825497 2.506317 -1.597400
						CHANNELS 3 Xrotation Yrotation Zrotation
						JOINT RightForeArm
						{
							OFFSET -21.966242 0.000000 0.000000
							CHANNELS 3 Xrotation Yrotation Zrotation
							JOINT RightHand
							{
								OFFSET -33.879032 0.000000 0.000000
								CHANNELS 3 Xrotation Yrotation Zrotation
								JOINT RightHandThumb1
								{
									OFFSET -6.715286 -2.359680 3.363841
									CHANNELS 3 Xrotation Yrotation Zrotation
									JOINT RightHandThumb2
									{
										OFFSET -2.507072 -1.447464 1.447461
										CHANNELS 3 Xrotation Yrotation Zrotation
										JOINT RightHandThumb3
										{
											OFFSET -2.898338 -1.673355 1.673357
											CHANNELS 3 Xrotation Yrotation Zrotation
											End Site
											{
												OFFSET 0.295959 3.727692 -0.131651
											}
										}
									}
								}
								JOINT RightHandIndex1
								{
									OFFSET -14.190811 -0.254547 3.840278
									CHANNELS 3 Xrotation Yrotation Zrotation
									JOINT RightHandIndex2
									{
										OFFSET -3.551727 0.000000 -0.000000
										CHANNELS 3 Xrotation Yrotation Zrotation
										JOINT RightHandIndex3
										{
											OFFSET -2.894196 0.000000 0.000000
											CHANNELS 3 Xrotation Yrotation Zrotation
											End Site
											{
												OFFSET 1.000603 2.690872 0.366626
											}
										}
									}
								}
								JOINT RightHandMiddle1
								{
									OFFSET -13.776489 0.000000 0.000000
									CHANNELS 3 Xrotation Yrotation Zrotation
									JOINT RightHandMiddle2
									{
										OFFSET -3.438232 0.000000 0.000000
										CHANNELS 3 Xrotation Yrotation Zrotation
										JOINT RightHandMiddle3
										{
											OFFSET -3.691551 0.000000 0.000000
											CHANNELS 3 Xrotation Yrotation Zrotation
											End Site
											{
												OFFSET 1.082298 3.499527 0.457670
											}
										}
									}
								}
								JOINT RightHandRing1
								{
									OFFSET -13.966164 -0.268127 -3.067488
									CHANNELS 3 Xrotation Yrotation Zrotation
									JOINT RightHandRing2
									{
										OFFSET -3.162567 0.000000 0.000000
										CHANNELS 3 Xrotation Yrotation Zrotation
										JOINT RightHandRing3
										{
											OFFSET -3.324348 0.000000 0.000000
											CHANNELS 3 Xrotation Yrotation Zrotation
											End Site
											{
												OFFSET 0.861900 3.184998 0.405154
											}
										}
									}
								}
								JOINT RightHandPinky1
								{
									OFFSET -13.131393 -0.168503 -5.746925
									CHANNELS 3 Xrotation Yrotation Zrotation
									JOINT RightHandPinky2
									{
										OFFSET -2.849182 0.000000 0.000000
										CHANNELS 3 Xrotation Yrotation Zrotation
										JOINT RightHandPinky3
										{
											OFFSET -2.805038 0.000000 0.000000
											CHANNELS 3 Xrotation Yrotation Zrotation
											End Site
											{
												OFFSET 0.882500 2.642609 0.325652
											}
										}
									}
								}
							}
							JOINT Right_Sleeve
							{
								OFFSET -6.592125 -0.646545 0.805568
								CHANNELS 3 Xrotation Yrotation Zrotation
								End Site
								{
									OFFSET 0.000179 20.275787 -0.000000
								}
							}
						}
					}
				}
				JOINT Bind_Right_JacketString
				{
					OFFSET -3.534800 11.969597 7.200700
					CHANNELS 3 Xrotation Yrotation Zrotation
					JOINT Bind_Right_JacketString1
					{
						OFFSET -0.319900 -6.102600 2.794100
						CHANNELS 3 Xrotation Yrotation Zrotation
						End Site
						{
							OFFSET 0.000000 6.719452 0.000000
						}
					}
				}
				JOINT Bind_Left_JacketString
				{
					OFFSET 2.904800 11.969597 7.200700
					CHANNELS 3 Xrotation Yrotation Zrotation
					JOINT Bind_Left_JacketString1
					{
						OFFSET 0.364800 -5.904503 3.186800
						CHANNELS 3 Xrotation Yrotation Zrotation
						End Site
						{
							OFFSET 0.000000 6.719513 0.000000
						}
					}
				}
				JOINT HairE
				{
					OFFSET 5.915200 17.612701 -11.592200
					CHANNELS 3 Xrotation Yrotation Zrotation
					JOINT HairE1
					{
						OFFSET 0.289200 -7.171898 -1.284500
						CHANNELS 3 Xrotation Yrotation Zrotation
						End Site
						{
							OFFSET 0.000000 7.291756 0.000000
						}
					}
				}
				JOINT HairF
				{
					OFFSET -0.864800 17.612701 -11.592200
					CHANNELS 3 Xrotation Yrotation Zrotation
					JOINT HairF1
					{
						OFFSET 0.000000 -14.087097 -2.127501
						CHANNELS 3 Xrotation Yrotation Zrotation
						End Site
						{
							OFFSET 0.000000 14.246841 0.000000
						}
					}
				}
				JOINT HairG
				{
					OFFSET -8.087700 17.612701 -11.592200
					CHANNELS 3 Xrotation Yrotation Zrotation
					JOINT HairG1
					{
						OFFSET -0.293600 -6.081398 -0.910100
						CHANNELS 3 Xrotation Yrotation Zrotation
						End Site
						{
							OFFSET 0.000000 6.156120 0.000000
						}
					}
				}
			}
		}
	}
	JOINT Pouch
	{
		OFFSET 0.000000 4.394501 10.847300
		CHANNELS 3 Xrotation Yrotation Zrotation
		End Site
		{
			OFFSET 0.000000 21.880577 0.000000
		}
	}
	JOINT Bag
	{
		OFFSET -13.229000 4.813004 -0.593300
		CHANNELS 3 Xrotation Yrotation Zrotation
		End Site
		{
			OFFSET 0.000000 21.880577 0.000000
		}
	}
	JOINT OccupyGuyFacialAnim_Joint
	{
		OFFSET 1.000000 -70.206398 -1.655000
		CHANNELS 3 Xrotation Yrotation Zrotation
		End Site
		{
			OFFSET 0.000000 21.880577 0.000000
		}
	}
}
MOTION
Frames: 4
Frame Time: 0.016667
-90.903595 27.987289 1.702458 3.697100 0.981963 -43.793677 0.000000 -0.000000 0.000000 -106.114338 -1.419187 9.839156 24.331810 -0.877410 2.885678 22.626480 -13.418332 40.300937 -0.000002 -0.000003 -0.000002 -0.000000 0.000000 -0.000000 -103.502979 -13.230730 -29.755422 132.968033 10.920568 0.334857 -4.414451 29.658290 7.284340 0.000001 -0.000001 -0.000000 -0.000000 0.000002 -0.000000 26.967153 -0.141545 -10.779767 4.579540 1.205240 -2.831991 4.490625 1.286407 -2.943294 -2.042154 1.139533 0.937738 -3.993401 18.457114 0.270734 -0.000001 -0.000002 0.000003 -0.000001 -0.000002 0.000003 -0.000001 -0.000002 0.000004 -0.000001 -0.000002 0.000003 -0.000003 -0.000002 -0.000000 -0.000001 -0.000002 0.000003 -0.000003 -0.000002 -0.000000 -0.000001 -0.000002 0.000003 -0.000001 -0.000002 0.000003 -1.373419 -20.809901 -17.189990 -48.855308 35.869100 -5.133213 -0.000015 -67.519562 -0.000013 -8.667161 25.097322 88.863541 -18.674847 -12.715926 12.000653 5.781744 26.667879 7.360273 0.000001 -0.000001 0.000001 -0.114398 -6.949159 -4.727153 0.000001 0.000003 -0.000001 0.000001 0.000000 0.000002 0.098868 -2.457605 0.172475 0.069072 0.897933 -8.797572 0.000001 0.000001 0.000001 0.130751 1.053439 3.316425 0.099481 1.076180 -10.562544 -0.000000 -0.000001 -0.000000 -1.043231 17.733020 -1.993049 0.000108 0.035387 -0.345395 0.000000 -0.000000 0.000003 -0.000001 0.000002 -0.000001 0.401288 16.298372 -0.998261 -40.005238 -32.703960 -10.775233 -0.000003 46.721527 -0.000002 -50.663878 -2.035154 11.091350 -36.432830 17.171410 -23.039131 7.506149 -18.062847 -3.520390 0.000000 0.000002 0.000001 0.815368 4.038526 -1.787527 -0.000001 0.000001 0.000042 -0.000001 -0.000002 0.000002 0.053661 -1.961532 -1.170901 -0.000000 -0.001808 0.022150 0.000000 -0.000001 0.000003 0.143741 -11.067587 0.271841 -0.000000 0.000028 0.000045 -0.000002 -0.000003 -0.000002 -0.350053 -18.063105 -1.651676 0.001512 -0.118482 1.454588 -0.000001 -0.000005 -0.000000 -0.000001 -0.000001 -0.000004 -0.000001 -0.000001 -0.000001 -0.000001 -0.000002 -0.000000 -0.000001 -0.000001 -0.000000 -0.000001 -0.000001 -0.000000 -0.000001 -0.000001 -0.000001 -0.000001 -0.000002 -0.000000 -0.000001 -0.000001 -0.000000 -0.000001 -0.000001 -0.000000 -0.000001 -0.000001 -0.000001 -0.000001 -0.000002 -0.000000 0.000000 -0.000000 0.000000 0.000000 -0.000000 0.000000 0.000000 -0.000000 0.000000 
-90.394623 28.850845 0.868116 3.441264 0.738825 -44.693466 -0.000000 -0.000000 -0.000001 -102.289261 -0.749851 10.297687 18.357050 -2.945684 2.747314 26.679588 -11.717110 40.129721 0.000000 -0.000002 -0.000000 0.000002 0.000004 -0.000000 -101.624595 -15.462223 -28.266994 130.087879 10.381880 0.219574 -5.389207 29.309206 8.613092 -0.000000 0.000000 0.000000 0.000002 0.000001 -0.000003 26.468824 -0.756588 -11.336556 4.544304 1.067057 -3.000545 4.469503 1.152593 -3.102255 -2.049349 1.250613 0.923241 -3.430772 19.437301 0.140222 -0.000002 0.000003 -0.000000 -0.000002 0.000003 -0.000000 -0.000002 0.000003 0.000001 -0.000002 0.000003 0.000001 -0.000002 -0.000001 -0.000003 -0.000002 0.000003 0.000001 -0.000002 -0.000001 -0.000003 -0.000002 0.000003 -0.000000 -0.000002 0.000003 -0.000000 -0.738574 -20.006915 -16.433090 -50.129251 35.122257 -5.603040 0.000011 -67.864288 0.000036 -7.308400 26.200075 89.911674 -18.673698 -12.714363 12.002640 5.779696 26.667108 7.363957 -0.000001 0.000001 0.000002 -0.114863 -6.948372 -4.729065 0.000003 -0.000005 -0.000001 0.000001 0.000001 0.000000 0.098906 -2.457254 0.173012 0.068626 0.895025 -8.768868 -0.000001 0.000002 0.000001 0.130719 1.054178 3.317229 0.098833 1.072692 -10.528034 -0.000000 0.000001 -0.000001 -1.043699 17.733739 -1.992103 0.000106 0.035312 -0.344530 -0.000001 0.000001 0.000001 0.000000 0.000003 0.000001 0.572107 17.177630 -1.647723 -40.220696 -36.620565 -13.906586 -0.000006 47.792838 0.000017 -49.852670 -3.546380 10.728611 -36.512562 17.028160 -23.229327 7.528386 -18.244747 -3.533572 -0.000000 -0.000002 -0.000000 0.824682 4.106046 -1.666736 0.000003 -0.000016 0.000050 -0.000002 0.000001 0.000002 0.055116 -1.872141 -1.095909 -0.000005 -0.001847 0.022644 0.000003 0.000001 0.000001 0.147336 -10.931672 0.311335 -0.000003 -0.000008 0.000034 0.000002 -0.000002 -0.000000 -0.366984 -18.002616 -1.683536 0.001720 -0.126626 1.554740 -0.000000 0.000003 0.000001 0.000002 0.000001 -0.000000 -0.000001 0.000000 -0.000003 0.000001 -0.000001 -0.000001 -0.000001 0.000000 -0.000002 -0.000001 0.000000 -0.000002 -0.000001 0.000000 -0.000003 0.000001 -0.000001 -0.000001 -0.000001 0.000000 -0.000002 -0.000001 0.000000 -0.000002 -0.000001 0.000000 -0.000003 0.000001 -0.000001 -0.000001 -0.000000 -0.000000 -0.000001 -0.000000 -0.000000 -0.000001 -0.000000 -0.000000 -0.000001 
-89.965157 29.853825 0.118758 4.059876 0.562341 -45.538985 0.000000 0.000000 0.000003 -102.960095 -0.915984 9.980231 21.315082 -2.502611 2.470515 24.930921 -11.408144 41.143454 -0.000001 0.000000 0.000000 0.000001 -0.000001 -0.000000 -100.007753 -17.556547 -26.795247 127.230961 10.061319 0.148113 -7.006698 28.910664 9.889591 0.000000 0.000000 0.000000 0.000002 -0.000001 0.000000 25.940825 -1.552080 -11.584660 4.488213 0.843234 -3.085122 4.437033 0.931086 -3.173855 -2.023571 1.363335 0.939929 -3.072406 20.274377 0.360039 0.000002 0.000001 0.000003 0.000002 0.000001 0.000003 0.000002 0.000001 0.000004 0.000002 0.000001 0.000002 -0.000000 0.000001 0.000002 0.000002 0.000001 0.000002 -0.000000 0.000001 0.000002 0.000002 0.000001 0.000003 0.000002 0.000001 0.000003 -0.122290 -19.220878 -15.638234 -51.499445 33.851633 -6.175615 0.000029 -67.064944 0.000039 -6.088723 26.491491 90.582372 -18.672538 -12.713418 12.004478 5.777698 26.666351 7.367550 -0.000003 -0.000005 -0.000003 -0.115379 -6.947557 -4.731097 0.000002 -0.000001 -0.000000 -0.000000 0.000003 0.000000 0.098951 -2.456933 0.173600 0.068518 0.894343 -8.762169 0.000001 0.000000 -0.000001 0.130688 1.054921 3.318094 0.098683 1.071877 -10.519940 -0.000000 -0.000001 -0.000000 -1.044125 17.734275 -1.991124 0.000103 0.035244 -0.343827 -0.000001 0.000001 -0.000001 0.000001 0.000001 -0.000000 0.605466 17.139989 -2.151162 -40.578495 -39.839319 -15.876104 -0.000004 48.762428 0.000018 -48.772472 -4.582342 9.448628 -36.561962 16.901349 -23.361303 7.551332 -18.432381 -3.547103 -0.000001 0.000004 -0.000002 0.833853 4.174743 -1.543924 -0.000006 0.000000 0.000007 0.000001 0.000002 0.000001 0.056359 -1.781225 -1.019675 -0.000002 -0.001909 0.023241 0.000001 -0.000002 -0.000001 0.150817 -10.793511 0.351486 0.000004 0.000013 0.000051 0.000001 -0.000003 0.000002 -0.384118 -17.941095 -1.715909 0.001951 -0.134931 1.656602 -0.000001 0.000002 -0.000003 -0.000001 0.000001 -0.000003 -0.000001 0.000000 -0.000000 0.000002 0.000002 -0.000001 -0.000001 0.000000 0.000001 -0.000001 0.000000 0.000001 -0.000001 0.000000 -0.000000 0.000002 0.000002 -0.000000 -0.000001 0.000000 0.000001 -0.000001 0.000000 0.000001 -0.000001 0.000000 -0.000000 0.000002 0.000002 -0.000000 0.000000 0.000000 0.000003 0.000000 0.000000 0.000003 0.000000 0.000000 0.000003 
-89.597153 31.070862 -0.589962 5.089291 0.371048 -46.662906 0.000000 -0.000001 0.000000 -106.722642 -1.756723 9.511788 30.846849 -0.379983 1.890946 19.036398 -12.062591 43.160652 0.000002 0.000001 -0.000001 -0.000000 -0.000001 -0.000000 -98.268575 -20.006795 -25.091253 124.084306 9.883408 0.148311 -8.839674 28.509056 10.952102 -0.000001 -0.000001 -0.000000 0.000001 -0.000001 -0.000000 25.504623 -2.451738 -11.543025 4.429974 0.562704 -3.087436 4.399096 0.647810 -3.172080 -1.978529 1.469746 0.973263 -2.886826 20.911707 0.815765 0.000002 -0.000001 -0.000001 0.000002 -0.000001 -0.000001 0.000002 -0.000001 0.000000 0.000002 -0.000001 -0.000002 0.000001 0.000001 -0.000000 0.000002 -0.000001 -0.000002 0.000001 0.000001 -0.000000 0.000002 -0.000001 -0.000001 0.000002 -0.000001 -0.000001 0.465873 -18.467175 -14.809595 -53.117326 32.371040 -6.476310 -0.000000 -65.498242 -0.000004 -5.129240 26.194781 91.077226 -18.671398 -12.712518 12.006302 5.775794 26.665625 7.371036 -0.000002 -0.000000 -0.000000 -0.115926 -6.946745 -4.733163 0.000001 0.000000 -0.000002 -0.000001 0.000001 -0.000002 0.098998 -2.456609 0.174213 0.068642 0.895127 -8.769939 0.000001 0.000001 0.000001 0.130660 1.055660 3.318956 0.098857 1.072807 -10.529233 -0.000001 0.000000 0.000000 -1.044496 17.734526 -1.990185 0.000107 0.035162 -0.343286 -0.000001 0.000003 -0.000000 0.000000 -0.000001 -0.000000 0.420650 16.309590 -2.316469 -40.918564 -42.271153 -17.103685 0.000009 49.709806 -0.000002 -47.434769 -5.281577 7.361203 -36.582148 16.789747 -23.436768 7.574905 -18.625472 -3.560982 -0.000001 -0.000002 0.000000 0.842841 4.244605 -1.419230 -0.000004 -0.000004 0.000043 0.000002 -0.000000 0.000000 0.057370 -1.688889 -0.942271 0.000005 -0.001948 0.023978 0.000001 -0.000003 -0.000001 0.154182 -10.653140 0.392196 -0.000002 0.000003 0.000028 -0.000002 -0.000000 -0.000002 -0.401465 -17.878577 -1.748780 0.002203 -0.143368 1.760086 -0.000002 0.000001 -0.000001 -0.000001 0.000005 0.000000 0.000001 0.000000 -0.000003 0.000002 0.000003 0.000000 0.000001 0.000000 -0.000000 0.000001 0.000000 -0.000000 0.000001 0.000000 -0.000003 0.000002 0.000003 0.000000 0.000001 0.000000 -0.000000 0.000001 0.000000 -0.000000 0.000001 0.000000 -0.000003 0.000002 0.000003 0.000000 0.000000 -0.000001 0.000000 0.000000 -0.000001 0.000000 0.000000 -0.000001 0.000000 
